# xmcd
#
# Track frame offsets: 
#        150
#        13448
#        25373
#        37880
#        51500
#        64735
#        75938
#        87323
#        97470
#        110673
#        119433
#        130023
#        139600
#        153563
#        165185
#        176338
#        190195
#        200538
#        209748
#        224768
#        235023
#        247070
#        261590
#        273115
#
# Disc length: 3791 seconds
#
# Revision: 0
# Processed by: cddbd v1.5.2PL0 Copyright (c) Steve Scherf et al.
# Submitted via: ExactAudioCopy v0.90b4
#
DISCID=670ecd18
DTITLE=Merle Haggard - I'm a lonesome fugitive and Branded man
DYEAR=1998
DGENRE=country
TTITLE0=I'm a lonesome fugitive
TTITLE1=all of me belongs to you
TTITLE2=house of memories
TTITLE3=life in prison
TTITLE4=whatever happened to me
TTITLE5=drink up and be somebody
TTITLE6=someone told my story
TTITLE7=if you want to be my woman
TTITLE8=mary's mine
TTITLE9=skid row
TTITLE10=my rough and rowdy ways
TTITLE11=mixed up mess of a heart
TTITLE12=branded man
TTITLE13=loneliness is eating me alive
TTITLE14=don't get married
TTITLE15=somewhere between 
TTITLE16=you don't have very far yo go
TTITLE17=gone crazy
TTITLE18=i threw away the rose
TTITLE19=my hands are tied
TTITLE20=some of us never learn
TTITLE21=long black limousine
TTITLE22=go home
TTITLE23=i made the prison bandI
EXTD=
EXTT0=
EXTT1=
EXTT2=
EXTT3=
EXTT4=
EXTT5=
EXTT6=
EXTT7=
EXTT8=
EXTT9=
EXTT10=
EXTT11=
EXTT12=
EXTT13=
EXTT14=
EXTT15=
EXTT16=
EXTT17=
EXTT18=
EXTT19=
EXTT20=
EXTT21=
EXTT22=
EXTT23=
PLAYORDER=
